<?xml version="1.0" encoding="UTF-8" standalone="no"?>
<!-- Created with Inkscape (http://www.inkscape.org/) -->
<!-- strokes all set to `stroke:currentColor;` so color is inherited from the text color -->

<svg width="55.121761mm" height="13.682587mm" viewBox="0 0 55.121761 13.682587" version="1.1" id="svg1"
  xmlns="http://www.w3.org/2000/svg" xmlns:svg="http://www.w3.org/2000/svg">
  <defs id="defs1" />
  <g id="layer1" transform="translate(-74.151201,-101.2852)">
    <path
      style="fill:none;fill-rule:evenodd;stroke:currentColor;stroke-width:1;stroke-linecap:round;stroke-linejoin:round;stroke-dasharray:none"
      d="m 74.651202,109.80865 c 1.672046,-0.56586 3.339917,-1.14405 5.003432,-1.73452 4.374208,-1.55263 8.790357,-3.20616 13.419818,-3.54149 2.314731,-0.16766 4.668821,0.003 6.890871,0.67317 2.222047,0.66976 4.309807,1.85195 5.907297,3.53544 0.37588,0.39611 0.72623,0.82197 0.98555,1.30253 0.25933,0.48057 0.42516,1.02012 0.41541,1.5661 -0.01,0.55072 -0.20083,1.09395 -0.52234,1.5412 -0.32151,0.44724 -0.7705,0.79864 -1.27431,1.02127 -1.00763,0.44525 -2.20309,0.35996 -3.20678,-0.0941 -0.94399,-0.42705 -1.73978,-1.16881 -2.24551,-2.07309 -0.505731,-0.90428 -0.721068,-1.96561 -0.623128,-2.99706 0.126633,-1.33363 0.767198,-2.58883 1.667818,-3.58055 0.90061,-0.99171 2.05035,-1.7336 3.2689,-2.29014 4.18746,-1.9125 9.12699,-1.64319 13.47591,-0.13343 4.14777,1.43993 7.91097,3.97196 10.80741,7.27166"
      id="path10" />
    <path
      style="fill:none;fill-rule:evenodd;stroke:currentColor;stroke-width:1;stroke-linecap:round;stroke-linejoin:round;stroke-dasharray:none"
      d="m 126.08648,102.80384 c 0.68936,1.62333 1.37872,3.24665 1.80123,4.49196 0.42252,1.24531 0.57818,2.11258 0.28909,2.50173 -0.28909,0.38916 -1.02292,0.30021 -2.24601,0.0556 -1.22308,-0.24462 -2.93533,-0.64488 -4.6476,-1.04515"
      id="path12" transform="translate(0.44475265,0.4781058)" />
  </g>
</svg>