<?xml version="1.0" encoding="UTF-8" standalone="no"?>
<!-- Created with Inkscape (http://www.inkscape.org/) -->
<!-- strokes all set to `stroke:currentColor;` so color is inherited from the text color -->

<svg width="24.203997mm" height="23.032469mm" viewBox="0 0 24.203997 23.032469" version="1.1" id="svg1"
  xmlns="http://www.w3.org/2000/svg" xmlns:svg="http://www.w3.org/2000/svg">
  <defs id="defs1" />
  <g id="layer1" transform="translate(-136.4986,-104.16848)">
    <path
      style="fill:none;fill-rule:evenodd;stroke:currentColor;stroke-width:1;stroke-linecap:round;stroke-linejoin:round;stroke-dasharray:none"
      d="m 145.19969,124.05926 c -1.58291,-1.42972 -4.41065,-4.03755 -6.05319,-6.18405 -1.64253,-2.14649 -2.09983,-3.83154 -2.1443,-5.52162 -0.0445,-1.69008 0.32388,-3.38503 1.48653,-4.44164 1.16265,-1.05661 3.11947,-1.47483 4.78732,-1.25245 1.66784,0.22238 3.04654,1.08535 3.9138,1.89488 0.86727,0.80954 1.22306,1.5656 1.41514,1.8381 0.19209,0.2725 0.22045,0.0614 0.28512,-0.35475 0.0647,-0.4162 0.16811,-1.05282 0.4944,-1.83904 0.32628,-0.78623 0.87662,-1.72966 1.76505,-2.41367 0.88843,-0.68401 2.1149,-1.10856 3.51438,-1.11642 1.39948,-0.008 2.97184,0.40096 3.99394,1.14001 1.0221,0.73906 1.49381,1.80827 1.54098,3.16058 0.0472,1.35231 -0.33021,2.9876 -1.86335,5.76297 -1.53314,2.77538 -4.22194,6.69065 -5.96733,8.93922 -1.74539,2.24856 -2.54731,2.83035 -3.12577,2.98652 -0.57846,0.15618 -0.9334,-0.11327 -1.28835,-0.38273 0,0 -0.49532,-0.28299 -0.49532,-0.28299 -0.33807,-0.2516 -0.67614,-0.5032 -2.25905,-1.93292 z"
      id="path16" />
  </g>
</svg>