<?xml version="1.0" encoding="UTF-8" standalone="no"?>
<!-- Created with Inkscape (http://www.inkscape.org/) -->
<!-- strokes all set to `stroke:currentColor;` so color is inherited from the text color -->

<svg width="25.718786mm" height="12.387067mm" viewBox="0 0 25.718786 12.387067" version="1.1" id="svg1"
  xmlns="http://www.w3.org/2000/svg" xmlns:svg="http://www.w3.org/2000/svg">
  <defs id="defs1" />
  <g id="layer1" transform="translate(-80.150011,-101.01593)">
    <path
      style="fill:none;fill-rule:evenodd;stroke:currentColor;stroke-width:0.5;stroke-linecap:round;stroke-linejoin:round;stroke-dasharray:none"
      d="m 81.522582,107.00673 c 0.150003,-1.74501 1.850146,-2.77674 3.353927,-3.2674 3.001739,-0.97943 6.276049,-1.05832 9.32111,-0.39846 2.719905,0.58941 5.505219,1.40367 7.720181,3.07124 0.94123,0.70862 1.47225,2.3693 0.43719,3.19851 -1.4152,1.13376 -3.015996,2.10851 -4.750406,2.57567 -3.162401,0.85177 -6.480692,0.48704 -9.656301,0.008 -1.702888,-0.25683 -3.757522,-0.43275 -4.828806,-1.89298 -1.439073,-1.96155 -0.575423,-4.81052 1.443445,-6.20638 3.480784,-2.40665 8.098875,-2.29362 11.987846,-0.94198 2.49799,0.8682 5.352342,1.38378 7.181812,3.47486 0.76302,0.87213 1.70077,2.04663 1.35385,3.19156 -0.44024,1.4529 -2.11834,1.97534 -3.49031,1.95809 -3.843292,0.31622 -7.682816,0.76257 -11.540054,0.85078 -2.932344,-0.002 -6.296661,0.0389 -8.541572,-1.92607 -1.254909,-1.09843 -1.235761,-2.95335 -0.962172,-4.43043 0.263643,-1.42338 1.762072,-1.90118 2.895862,-2.50501 1.813981,-0.96609 3.65413,-1.9686 5.727147,-2.26159 2.620259,-0.37033 5.340753,-0.34095 7.905925,0.30442 2.38072,0.59897 4.675334,1.6796 6.555294,3.25314 1.26594,1.0596 2.17074,2.7264 1.94803,4.3722 -0.1861,1.37528 -1.56926,2.01492 -2.6955,2.49709 -1.66941,0.71471 -3.441357,1.2496 -5.275137,1.21803 -2.612674,0.0465 -5.205012,-0.47811 -7.819046,-0.33943"
      id="path9" />
  </g>
</svg>