<!-- `preserveAspectRatio="xMinYMin slice"` acts like object-fit: cover for images -->
<!-- strokes all set to `stroke:currentColor;` so color is inherited from the text color -->
<svg id="visual" viewBox="0 0 1800 1000" width="1800" height="1000" preserveAspectRatio="xMinYMin slice"
  xmlns="http://www.w3.org/2000/svg" xmlns:xlink="http://www.w3.org/1999/xlink" version="1.1">
  <g transform="translate(1800, 1000)">
    <path style="stroke:currentColor;fill:currentColor;"
      d="M-950 0C-920.9 -120.4 -891.9 -240.9 -843.5 -349.4C-795.1 -457.9 -727.4 -554.5 -647 -647C-566.6 -739.5 -473.5 -827.9 -363.5 -877.7C-253.6 -927.5 -126.8 -938.7 0 -950L0 0Z">
    </path>
  </g>
  <g transform="translate(0, 0)">
    <path style="stroke:currentColor;fill:currentColor;"
      d="M950 0C926.3 119.5 902.6 239 861.1 356.7C819.6 474.3 760.3 590.1 671.8 671.8C583.2 753.4 465.5 801 348.6 841.7C231.8 882.3 115.9 916.2 0 950L0 0Z">
    </path>
  </g>
</svg>